<svg width="77" height="77" viewBox="0 0 77 77" fill="none" xmlns="http://www.w3.org/2000/svg">
<circle cx="38.5" cy="38.5" r="38.5" fill="#4529E6"/>
<path d="M35.6541 33.2174C35.5532 32.3214 35.1367 31.6273 34.4047 31.1351C33.6728 30.6366 32.7515 30.3873 31.6409 30.3873C30.8458 30.3873 30.158 30.5135 29.5775 30.7659C28.997 31.012 28.5458 31.3528 28.224 31.7882C27.9085 32.2172 27.7507 32.7063 27.7507 33.2553C27.7507 33.7159 27.858 34.1134 28.0725 34.4479C28.2934 34.7823 28.5805 35.0631 28.9339 35.2903C29.2936 35.5111 29.6785 35.6973 30.0886 35.8487C30.4988 35.9938 30.8932 36.1137 31.2718 36.2084L33.1648 36.7006C33.7832 36.852 34.4173 37.0571 35.0673 37.3158C35.7172 37.5745 36.3198 37.9153 36.8751 38.338C37.4304 38.7608 37.8784 39.2846 38.2192 39.9093C38.5662 40.534 38.7398 41.2817 38.7398 42.1525C38.7398 43.2505 38.4558 44.2254 37.8879 45.0772C37.3263 45.9291 36.5091 46.6011 35.4364 47.0933C34.37 47.5855 33.0796 47.8316 31.5652 47.8316C30.1139 47.8316 28.8582 47.6013 27.7981 47.1406C26.738 46.68 25.9082 46.0269 25.3087 45.1813C24.7093 44.3295 24.378 43.3199 24.3149 42.1525H27.2491C27.3059 42.8529 27.533 43.4366 27.9306 43.9035C28.3344 44.3642 28.8487 44.7081 29.4734 44.9352C30.1044 45.1561 30.7954 45.2665 31.5463 45.2665C32.3729 45.2665 33.108 45.1372 33.7516 44.8785C34.4016 44.6134 34.9127 44.2474 35.285 43.7805C35.6573 43.3072 35.8434 42.7551 35.8434 42.1241C35.8434 41.5499 35.6794 41.0798 35.3512 40.7138C35.0294 40.3478 34.5909 40.0449 34.0356 39.8051C33.4866 39.5654 32.8651 39.354 32.171 39.171L29.8804 38.5463C28.3281 38.1235 27.0976 37.502 26.189 36.6816C25.2866 35.8613 24.8355 34.776 24.8355 33.4256C24.8355 32.3087 25.1384 31.3338 25.7441 30.5009C26.3499 29.668 27.1702 29.0212 28.2051 28.5605C29.2399 28.0936 30.4073 27.8601 31.7072 27.8601C33.0197 27.8601 34.1776 28.0904 35.1809 28.5511C36.1905 29.0117 36.9856 29.6459 37.5661 30.4536C38.1466 31.255 38.4495 32.1762 38.4747 33.2174H35.6541ZM42.2348 47.5098V28.1251H45.1595V44.992H53.9432V47.5098H42.2348Z" fill="white"/>
</svg>
